<svg id="visual" viewBox="0 0 1920 1080" width="1920" height="1080" xmlns="http://www.w3.org/2000/svg" xmlns:xlink="http://www.w3.org/1999/xlink" version="1.1"><rect x="0" y="0" width="1920" height="1080" fill="#FFF"></rect><defs><linearGradient id="grad1_0" x1="43.8%" y1="0%" x2="100%" y2="100%"><stop offset="14.444444444444446%" stop-color="#ff5d5d" stop-opacity="1"></stop><stop offset="85.55555555555554%" stop-color="#ff5d5d" stop-opacity="1"></stop></linearGradient></defs><defs><linearGradient id="grad1_1" x1="43.8%" y1="0%" x2="100%" y2="100%"><stop offset="14.444444444444446%" stop-color="#ff5d5d" stop-opacity="1"></stop><stop offset="85.55555555555554%" stop-color="#ffffff" stop-opacity="1"></stop></linearGradient></defs><defs><linearGradient id="grad2_0" x1="0%" y1="0%" x2="56.3%" y2="100%"><stop offset="14.444444444444446%" stop-color="#ff5d5d" stop-opacity="1"></stop><stop offset="85.55555555555554%" stop-color="#ff5d5d" stop-opacity="1"></stop></linearGradient></defs><defs><linearGradient id="grad2_1" x1="0%" y1="0%" x2="56.3%" y2="100%"><stop offset="14.444444444444446%" stop-color="#ffffff" stop-opacity="1"></stop><stop offset="85.55555555555554%" stop-color="#ff5d5d" stop-opacity="1"></stop></linearGradient></defs><g transform="translate(1920, 0)"><path d="M0 702C-108.1 659.5 -216.3 617 -325.5 563.8C-434.7 510.6 -545 446.7 -607.9 351C-670.9 255.3 -686.4 127.6 -702 0L0 0Z" fill="#ffb2ab"></path><path d="M0 351C-54.1 329.7 -108.1 308.5 -162.7 281.9C-217.4 255.3 -272.5 223.4 -304 175.5C-335.4 127.6 -343.2 63.8 -351 0L0 0Z" fill="#ff5d5d"></path></g><g transform="translate(0, 1080)"><path d="M0 -702C84.1 -617.9 168.3 -533.8 280.5 -485.8C392.7 -437.9 533 -426 607.9 -351C682.9 -276 692.4 -138 702 0L0 0Z" fill="#ffb2ab"></path><path d="M0 -351C42.1 -309 84.1 -266.9 140.2 -242.9C196.4 -218.9 266.5 -213 304 -175.5C341.4 -138 346.2 -69 351 0L0 0Z" fill="#ff5d5d"></path></g></svg>