<svg id="visual" viewBox="0 0 3440 1440" width="3440" height="1440" xmlns="http://www.w3.org/2000/svg" xmlns:xlink="http://www.w3.org/1999/xlink" version="1.1"><rect x="0" y="0" width="3440" height="1440" fill="#FFF"></rect><defs><linearGradient id="grad1_0" x1="58.1%" y1="0%" x2="100%" y2="100%"><stop offset="2.222222222222225%" stop-color="#ff5d5d" stop-opacity="1"></stop><stop offset="97.77777777777779%" stop-color="#ff5d5d" stop-opacity="1"></stop></linearGradient></defs><defs><linearGradient id="grad1_1" x1="58.1%" y1="0%" x2="100%" y2="100%"><stop offset="2.222222222222225%" stop-color="#ff5d5d" stop-opacity="1"></stop><stop offset="97.77777777777779%" stop-color="#ffffff" stop-opacity="1"></stop></linearGradient></defs><defs><linearGradient id="grad2_0" x1="0%" y1="0%" x2="41.9%" y2="100%"><stop offset="2.222222222222225%" stop-color="#ff5d5d" stop-opacity="1"></stop><stop offset="97.77777777777779%" stop-color="#ff5d5d" stop-opacity="1"></stop></linearGradient></defs><defs><linearGradient id="grad2_1" x1="0%" y1="0%" x2="41.9%" y2="100%"><stop offset="2.222222222222225%" stop-color="#ffffff" stop-opacity="1"></stop><stop offset="97.77777777777779%" stop-color="#ff5d5d" stop-opacity="1"></stop></linearGradient></defs><g transform="translate(3440, 0)"><path d="M0 936C-170.3 915.3 -340.6 894.6 -468 810.6C-595.4 726.6 -680 579.2 -750.8 433.5C-821.7 287.8 -878.9 143.9 -936 0L0 0Z" fill="#ffb2ab"></path><path d="M0 468C-85.1 457.7 -170.3 447.3 -234 405.3C-297.7 363.3 -340 289.6 -375.4 216.8C-410.9 143.9 -439.4 72 -468 0L0 0Z" fill="#ff5d5d"></path></g><g transform="translate(0, 1440)"><path d="M0 -936C154.1 -896.4 308.1 -856.8 452.5 -783.8C596.9 -710.7 731.6 -604.2 810.6 -468C889.6 -331.8 912.8 -165.9 936 0L0 0Z" fill="#ffb2ab"></path><path d="M0 -468C77 -448.2 154.1 -428.4 226.2 -391.9C298.4 -355.4 365.8 -302.1 405.3 -234C444.8 -165.9 456.4 -82.9 468 0L0 0Z" fill="#ff5d5d"></path></g></svg>